<svg width="14" height="11" viewBox="0 0 14 11" fill="none" xmlns="http://www.w3.org/2000/svg">
<path d="M4.95117 3.64062C5.24805 3.40234 5.5918 3.21484 5.98242 3.07812C6.37305 2.94141 6.7793 2.87305 7.20117 2.87305C7.62695 2.87305 8.02734 2.94922 8.40234 3.10156L8.41406 2.99023H9.89648L9.64453 5.65625C9.62891 5.78906 9.62109 5.94531 9.62109 6.125C9.62109 6.53516 9.83984 6.74023 10.2773 6.74023C10.8008 6.74023 11.1758 6.45117 11.4023 5.87305C11.5195 5.57227 11.5781 5.19336 11.5781 4.73633C11.5781 4.27539 11.4824 3.83398 11.291 3.41211C11.1035 2.98633 10.8301 2.61914 10.4707 2.31055C9.70117 1.65039 8.68164 1.32031 7.41211 1.32031C5.95508 1.32031 4.76953 1.74414 3.85547 2.5918C2.875 3.49414 2.38477 4.60742 2.38477 5.93164C2.38477 7.00977 2.77344 7.88281 3.55078 8.55078C4.36719 9.25 5.48242 9.59961 6.89648 9.59961C7.71289 9.59961 8.50391 9.5 9.26953 9.30078C9.98438 9.12109 10.4629 8.91797 10.7051 8.69141L10.7402 8.70898L10.1836 10.1152C9.20703 10.6074 8.05469 10.8535 6.72656 10.8535C4.91797 10.8535 3.49414 10.4414 2.45508 9.61719C1.4043 8.77734 0.878906 7.60742 0.878906 6.10742C0.878906 5.96289 0.894531 5.70703 0.925781 5.33984C0.960938 4.97266 1.06836 4.56445 1.24805 4.11523C1.42773 3.66211 1.66406 3.23633 1.95703 2.83789C2.25 2.43945 2.5918 2.07227 2.98242 1.73633C3.37695 1.40039 3.80859 1.10938 4.27734 0.863281C5.26953 0.351563 6.33203 0.0957031 7.46484 0.0957031C8.65234 0.0957031 9.69336 0.308594 10.5879 0.734375C11.3965 1.12109 12.0234 1.66406 12.4688 2.36328C12.8867 3.02344 13.0957 3.74805 13.0957 4.53711C13.0957 5.18555 12.9844 5.73828 12.7617 6.19531C12.543 6.65234 12.2969 7.01367 12.0234 7.2793C11.4609 7.81836 10.8281 8.08789 10.125 8.08789C9.42188 8.08789 8.89062 7.89062 8.53125 7.49609C7.9375 7.89062 7.28711 8.08789 6.58008 8.08789C5.74805 8.08789 5.08594 7.84961 4.59375 7.37305C4.13281 6.92773 3.90234 6.37305 3.90234 5.70898C3.90234 5.26758 4.00391 4.87109 4.20703 4.51953C4.41016 4.16797 4.6582 3.875 4.95117 3.64062ZM8.26758 4.49609C7.97461 4.3125 7.5957 4.2207 7.13086 4.2207C6.6582 4.2207 6.26562 4.33984 5.95312 4.57812C5.65234 4.80469 5.48633 5.09766 5.45508 5.45703C5.39258 6.03516 5.64453 6.42188 6.21094 6.61719C6.40234 6.67969 6.67383 6.71094 7.02539 6.71094C7.37695 6.71094 7.73828 6.60156 8.10938 6.38281C8.10156 6.27344 8.10547 6.16406 8.12109 6.05469L8.26758 4.49609Z" fill="#ffffff"/>
</svg>
