<svg width="3645" height="3159" viewBox="0 0 3645 3159" fill="none" xmlns="http://www.w3.org/2000/svg">
<path d="M3402 1883.25V303.75C3402 287.297 3395.99 273.059 3383.96 261.035C3371.94 249.012 3357.7 243 3341.25 243H303.75C287.297 243 273.059 249.012 261.035 261.035C249.012 273.059 243 287.297 243 303.75V1883.25C243 1899.7 249.012 1913.94 261.035 1925.96C273.059 1937.99 287.297 1944 303.75 1944H3341.25C3357.7 1944 3371.94 1937.99 3383.96 1925.96C3395.99 1913.94 3402 1899.7 3402 1883.25ZM3645 303.75V2369.25C3645 2452.78 3615.26 2524.29 3555.77 2583.77C3496.29 2643.26 3424.78 2673 3341.25 2673H2308.5C2308.5 2719.83 2318.62 2768.87 2338.88 2820.13C2359.13 2871.39 2379.37 2916.32 2399.62 2954.92C2419.88 2993.52 2430 3021.05 2430 3037.5C2430 3070.41 2417.98 3098.88 2393.93 3122.93C2369.88 3146.98 2341.41 3159 2308.5 3159H1336.5C1303.59 3159 1275.12 3146.98 1251.07 3122.93C1227.02 3098.88 1215 3070.41 1215 3037.5C1215 3019.78 1225.12 2991.94 1245.38 2953.97C1265.63 2916 1285.87 2871.7 1306.12 2821.08C1326.38 2770.45 1336.5 2721.09 1336.5 2673H303.75C220.219 2673 148.711 2643.26 89.2266 2583.77C29.7422 2524.29 0 2452.78 0 2369.25V303.75C0 220.219 29.7422 148.711 89.2266 89.2266C148.711 29.7422 220.219 0 303.75 0H3341.25C3424.78 0 3496.29 29.7422 3555.77 89.2266C3615.26 148.711 3645 220.219 3645 303.75Z" fill="#ffffff"/>
</svg>
