<svg width="1064" height="1064" viewBox="0 0 1064 1064" fill="none" xmlns="http://www.w3.org/2000/svg">
<path d="M955.531 177.333C951.503 176.918 947.442 176.918 943.413 177.333H115.858C110.554 177.415 105.285 178.21 100.193 179.697L527.271 605.002L955.531 177.333Z" fill="black"/>
<path d="M999.274 218.416L568.945 646.972C557.87 657.981 542.888 664.161 527.272 664.161C511.656 664.161 496.674 657.981 485.599 646.972L59.1119 221.667C57.8008 226.486 57.1056 231.451 57.043 236.445V827.556C57.043 843.233 63.2707 858.268 74.3562 869.354C85.4417 880.439 100.477 886.667 116.154 886.667H943.71C959.387 886.667 974.422 880.439 985.508 869.354C996.593 858.268 1002.82 843.233 1002.82 827.556V236.445C1002.59 230.287 1001.39 224.204 999.274 218.416V218.416ZM156.645 827.556H115.563V785.292L330.432 572.196L372.105 613.869L156.645 827.556ZM943.119 827.556H901.741L686.281 613.869L727.954 572.196L942.823 785.292L943.119 827.556Z" fill="black"/>
</svg>
