<svg width="80" height="11" viewBox="0 0 80 11" fill="none" xmlns="http://www.w3.org/2000/svg">
<path d="M7.42969 5.30078C7.35547 5.43359 7.31836 5.75195 7.31836 6.25586V8.07227C7.31836 8.62305 7.0332 9.10156 6.46289 9.50781C5.87305 9.93359 5.15039 10.1465 4.29492 10.1465C3.10742 10.1465 2.16016 9.77344 1.45312 9.02734C0.769531 8.31641 0.427734 7.41016 0.427734 6.30859C0.427734 5.13672 0.775391 4.16016 1.4707 3.37891C2.24805 2.5 3.31836 2.06055 4.68164 2.06055C5.5918 2.06055 6.3125 2.23633 6.84375 2.58789L6.75 4.31641L6.70312 4.32812C6.56641 4.08984 6.29688 3.89453 5.89453 3.74219C5.51172 3.59766 5.10938 3.52539 4.6875 3.52539C4.26953 3.52539 3.90234 3.5918 3.58594 3.72461C3.27344 3.85742 3.00781 4.04688 2.78906 4.29297C2.32812 4.79688 2.09766 5.46289 2.09766 6.29102C2.09766 7.01367 2.30078 7.59375 2.70703 8.03125C3.11328 8.46484 3.63672 8.68164 4.27734 8.68164C4.98438 8.68164 5.46094 8.49805 5.70703 8.13086C5.78516 8.01367 5.82422 7.88086 5.82422 7.73242V6.75977H5.06836C4.66211 6.75977 4.44141 6.79492 4.40625 6.86523L4.38867 6.85938L4.33594 5.33008C4.44531 5.36133 4.88867 5.37695 5.66602 5.37695H6.35742C6.78711 5.37695 7.13867 5.34766 7.41211 5.28906L7.42969 5.30078ZM12.8965 9.63672C12.3418 9.9375 11.8398 10.0879 11.3906 10.0879C10.9414 10.0879 10.5566 10.0469 10.2363 9.96484C9.91602 9.87891 9.64453 9.75391 9.42188 9.58984C8.96875 9.25781 8.74219 8.77734 8.74219 8.14844C8.74219 7.58594 9.01953 7.11719 9.57422 6.74219C10.1758 6.33594 10.9922 6.13281 12.0234 6.13281L12.2578 6.13867C12.3047 6.14258 12.3574 6.14648 12.416 6.15039C12.4746 6.15039 12.5273 6.1543 12.5742 6.16211C12.543 5.53711 12.2734 5.17188 11.7656 5.06641C11.5977 5.03125 11.418 5.01367 11.2266 5.01367C11.0391 5.01367 10.8535 5.03125 10.6699 5.06641C10.4902 5.09766 10.3145 5.14062 10.1426 5.19531C9.76367 5.31641 9.49219 5.45508 9.32812 5.61133L9.31055 5.59961L9.13477 4.30469C9.82617 3.94141 10.582 3.75977 11.4023 3.75977C12.6758 3.75977 13.4902 4.21875 13.8457 5.13672C13.959 5.42969 14.0156 5.75977 14.0156 6.12695V8.24805C14.0156 8.70117 14.1758 9.00977 14.4961 9.17383L13.4355 10.1465C13.2129 10.0293 13.0332 9.85938 12.8965 9.63672ZM12.5801 7.2168C12.4746 7.19727 12.3652 7.1875 12.252 7.1875H12.0176C11.1543 7.1875 10.6055 7.37891 10.3711 7.76172C10.3008 7.875 10.2656 7.99414 10.2656 8.11914C10.2656 8.24414 10.2871 8.35547 10.3301 8.45312C10.377 8.54688 10.4531 8.625 10.5586 8.6875C10.7617 8.80469 11.0625 8.86328 11.4609 8.86328C11.8633 8.86328 12.2383 8.76758 12.5859 8.57617C12.582 8.5332 12.5801 8.48828 12.5801 8.44141V7.2168ZM17.3145 4.09961C17.752 3.87305 18.1992 3.75977 18.6562 3.75977C19.1133 3.75977 19.5059 3.83203 19.834 3.97656C20.166 4.11719 20.457 4.32031 20.707 4.58594C21.25 5.17578 21.5215 5.92188 21.5215 6.82422C21.5215 7.8125 21.2266 8.60938 20.6367 9.21484C20.0703 9.79688 19.3652 10.0879 18.5215 10.0879C17.7793 10.0879 17.168 9.89453 16.6875 9.50781C16.1484 9.07031 15.8789 8.4668 15.8789 7.69727V1.28125H17.3145V4.09961ZM17.3145 7.67969C17.3145 8.36719 17.7422 8.71094 18.5977 8.71094C19.0156 8.71094 19.3672 8.52734 19.6523 8.16016C19.9414 7.78516 20.0859 7.31836 20.0859 6.75977C20.0859 6.19727 19.9336 5.77344 19.6289 5.48828C19.3555 5.23438 18.9883 5.10742 18.5273 5.10742C18.25 5.10742 17.9434 5.20117 17.6074 5.38867C17.502 5.44727 17.4043 5.51172 17.3145 5.58203V7.67969ZM24.1934 9.34375C24.1934 9.67969 24.2012 9.89844 24.2168 10H22.7578V3.87695H24.1934V4.32812C24.5254 3.94922 24.873 3.75977 25.2363 3.75977C25.6035 3.75977 25.8926 3.80469 26.1035 3.89453L25.998 5.4707L25.9746 5.48828C25.8379 5.24609 25.5547 5.125 25.125 5.125C24.9609 5.125 24.793 5.18164 24.6211 5.29492C24.4531 5.4043 24.3105 5.55078 24.1934 5.73438V9.34375ZM26.6309 2.13086C26.9434 1.64258 27.2695 1.21289 27.6094 0.841797L28.8691 1.83203C28.7012 2.03906 28.5449 2.24219 28.4004 2.44141C28.4004 2.44141 28.25 2.6543 27.9492 3.08008L26.6309 2.13086ZM28.1719 9.34375C28.1719 9.67969 28.1797 9.89844 28.1953 10H26.707V3.87695H28.1719V9.34375ZM29.5371 6.98828C29.5371 6.53125 29.6152 6.10742 29.7715 5.7168C29.9277 5.32617 30.1484 4.98438 30.4336 4.69141C31.043 4.07031 31.8398 3.75977 32.8242 3.75977C33.6562 3.75977 34.3242 4.03516 34.8281 4.58594C35.3242 5.11719 35.5723 5.78516 35.5723 6.58984C35.5723 6.89844 35.5488 7.10938 35.502 7.22266C35.1113 7.33203 34.3164 7.38672 33.1172 7.38672H31.0547C31.1562 7.80469 31.3926 8.13086 31.7637 8.36523C32.1348 8.5957 32.6172 8.71094 33.2109 8.71094C33.832 8.71094 34.3652 8.59961 34.8105 8.37695C34.9277 8.31836 35.0156 8.26367 35.0742 8.21289C35.0664 8.37695 35.0566 8.54492 35.0449 8.7168L34.9805 9.63086C34.6836 9.83398 34.2031 9.97461 33.5391 10.0527C33.3438 10.0762 33.1562 10.0879 32.9766 10.0879C31.9844 10.0879 31.1641 9.79883 30.5156 9.2207C29.8633 8.63867 29.5371 7.89453 29.5371 6.98828ZM34.0137 6.25C33.8535 5.41016 33.3965 4.99023 32.6426 4.99023C32.0488 4.99023 31.5977 5.24609 31.2891 5.75781C31.1953 5.91406 31.123 6.08594 31.0723 6.27344C31.166 6.27734 31.2812 6.28125 31.418 6.28516H31.8516C31.9961 6.28906 32.1348 6.29102 32.2676 6.29102H32.6016C32.8008 6.29102 32.9961 6.28906 33.1875 6.28516L33.668 6.26758C33.7969 6.26367 33.9121 6.25781 34.0137 6.25ZM38.209 9.34375C38.209 9.67969 38.2168 9.89844 38.2324 10H36.7441V1.26953H38.209V9.34375ZM40.7695 7.07031C40.4727 7.07031 40.2305 7.08008 40.043 7.09961L40.0605 5.65234C40.1504 5.67578 40.4082 5.6875 40.834 5.6875H43.1133C43.543 5.6875 43.8008 5.67578 43.8867 5.65234L43.9043 7.09961C43.7168 7.08008 43.4746 7.07031 43.1777 7.07031H40.7695ZM50.8828 9.43164C50.5977 9.6582 50.2266 9.83398 49.7695 9.95898C49.3125 10.084 48.75 10.1465 48.082 10.1465C47.418 10.1465 46.7109 10.0859 45.9609 9.96484V2.24219C46.7188 2.12109 47.375 2.06055 47.9297 2.06055C48.4883 2.06055 48.9453 2.11328 49.3008 2.21875C49.6602 2.32422 49.9531 2.4668 50.1797 2.64648C50.625 2.99414 50.8477 3.44531 50.8477 4C50.8477 4.55078 50.6465 5.00781 50.2441 5.37109C50.7207 5.51953 51.0898 5.80078 51.3516 6.21484C51.5898 6.58594 51.709 6.99805 51.709 7.45117C51.709 7.90039 51.6426 8.28516 51.5098 8.60547C51.3809 8.92578 51.1719 9.20117 50.8828 9.43164ZM47.5137 5.1543C47.6777 5.18164 47.8828 5.19531 48.1289 5.19531C48.375 5.19531 48.5762 5.16406 48.7324 5.10156C48.8926 5.03516 49.0156 4.95312 49.1016 4.85547C49.2422 4.69531 49.3125 4.47266 49.3125 4.1875C49.3125 3.58984 48.9609 3.29102 48.2578 3.29102C47.9609 3.29102 47.7129 3.30273 47.5137 3.32617V5.1543ZM48.3809 6.4082C48.0527 6.4082 47.7637 6.42969 47.5137 6.47266V8.77539C47.7871 8.8457 48.0742 8.88086 48.375 8.88086C48.6758 8.88086 48.9395 8.8457 49.166 8.77539C49.3965 8.70117 49.5898 8.60156 49.7461 8.47656C50.0625 8.21875 50.2207 7.89062 50.2207 7.49219C50.2207 6.76953 49.6074 6.4082 48.3809 6.4082ZM56.877 9.63672C56.3223 9.9375 55.8203 10.0879 55.3711 10.0879C54.9219 10.0879 54.5371 10.0469 54.2168 9.96484C53.8965 9.87891 53.625 9.75391 53.4023 9.58984C52.9492 9.25781 52.7227 8.77734 52.7227 8.14844C52.7227 7.58594 53 7.11719 53.5547 6.74219C54.1562 6.33594 54.9727 6.13281 56.0039 6.13281L56.2383 6.13867C56.2852 6.14258 56.3379 6.14648 56.3965 6.15039C56.4551 6.15039 56.5078 6.1543 56.5547 6.16211C56.5234 5.53711 56.2539 5.17188 55.7461 5.06641C55.5781 5.03125 55.3984 5.01367 55.207 5.01367C55.0195 5.01367 54.834 5.03125 54.6504 5.06641C54.4707 5.09766 54.2949 5.14062 54.123 5.19531C53.7441 5.31641 53.4727 5.45508 53.3086 5.61133L53.291 5.59961L53.1152 4.30469C53.8066 3.94141 54.5625 3.75977 55.3828 3.75977C56.6562 3.75977 57.4707 4.21875 57.8262 5.13672C57.9395 5.42969 57.9961 5.75977 57.9961 6.12695V8.24805C57.9961 8.70117 58.1562 9.00977 58.4766 9.17383L57.416 10.1465C57.1934 10.0293 57.0137 9.85938 56.877 9.63672ZM56.5605 7.2168C56.4551 7.19727 56.3457 7.1875 56.2324 7.1875H55.998C55.1348 7.1875 54.5859 7.37891 54.3516 7.76172C54.2812 7.875 54.2461 7.99414 54.2461 8.11914C54.2461 8.24414 54.2676 8.35547 54.3105 8.45312C54.3574 8.54688 54.4336 8.625 54.5391 8.6875C54.7422 8.80469 55.043 8.86328 55.4414 8.86328C55.8438 8.86328 56.2188 8.76758 56.5664 8.57617C56.5625 8.5332 56.5605 8.48828 56.5605 8.44141V7.2168ZM61.2129 9.34375C61.2129 9.67969 61.2207 9.89844 61.2363 10H59.7773V3.87695H61.2129V4.32812C61.5449 3.94922 61.8926 3.75977 62.2559 3.75977C62.623 3.75977 62.9121 3.80469 63.123 3.89453L63.0176 5.4707L62.9941 5.48828C62.8574 5.24609 62.5742 5.125 62.1445 5.125C61.9805 5.125 61.8125 5.18164 61.6406 5.29492C61.4727 5.4043 61.3301 5.55078 61.2129 5.73438V9.34375ZM65.2207 9.34375C65.2207 9.67969 65.2285 9.89844 65.2441 10H63.7852V3.87695H65.2207V4.32812C65.5527 3.94922 65.9004 3.75977 66.2637 3.75977C66.6309 3.75977 66.9199 3.80469 67.1309 3.89453L67.0254 5.4707L67.002 5.48828C66.8652 5.24609 66.582 5.125 66.1523 5.125C65.9883 5.125 65.8203 5.18164 65.6484 5.29492C65.4805 5.4043 65.3379 5.55078 65.2207 5.73438V9.34375ZM67.4004 6.9707C67.4004 6.54102 67.4727 6.13086 67.6172 5.74023C67.7656 5.3457 67.9766 5.00195 68.25 4.70898C68.8477 4.07617 69.623 3.75977 70.5762 3.75977C71.5254 3.75977 72.2793 4.05859 72.8379 4.65625C73.373 5.22656 73.6406 5.9668 73.6406 6.87695C73.6406 7.78711 73.3652 8.54102 72.8145 9.13867C72.2324 9.77148 71.4609 10.0879 70.5 10.0879C69.5078 10.0879 68.7305 9.77734 68.168 9.15625C67.6562 8.58984 67.4004 7.86133 67.4004 6.9707ZM68.8242 6.93555C68.8242 7.18164 68.8652 7.41992 68.9473 7.65039C69.0293 7.88086 69.1465 8.07812 69.2988 8.24219C69.623 8.59766 70.0488 8.77539 70.5762 8.77539C71.0645 8.77539 71.4492 8.60156 71.7305 8.25391C72.0039 7.91797 72.1406 7.48047 72.1406 6.94141C72.1406 6.39453 72 5.95312 71.7188 5.61719C71.418 5.25781 71.0059 5.07812 70.4824 5.07812C69.9512 5.07812 69.5352 5.26953 69.2344 5.65234C68.9609 6.00391 68.8242 6.43164 68.8242 6.93555ZM76.9277 10.0879C75.8262 10.0879 74.9961 9.88672 74.4375 9.48438C74.4453 9.36719 74.457 9.23438 74.4727 9.08594L74.5254 8.66406C74.5566 8.38672 74.5762 8.21484 74.584 8.14844C74.5918 8.07812 74.5977 8.04102 74.6016 8.03711C74.6055 8.0293 74.6367 8.06055 74.6953 8.13086C74.7539 8.19727 74.8652 8.2793 75.0293 8.37695C75.1934 8.47461 75.3828 8.56055 75.5977 8.63477C76.0625 8.79492 76.5469 8.875 77.0508 8.875C77.7266 8.875 78.0645 8.65039 78.0645 8.20117C78.0645 8.05664 78 7.94922 77.8711 7.87891C77.6406 7.76172 77.3008 7.67383 76.8516 7.61523C76.4062 7.55273 76.041 7.46289 75.7559 7.3457C75.4707 7.22852 75.2383 7.08789 75.0586 6.92383C74.7266 6.61523 74.5605 6.21094 74.5605 5.71094C74.5605 5.10156 74.7949 4.62305 75.2637 4.27539C75.7285 3.93164 76.3711 3.75977 77.1914 3.75977C78.0039 3.75977 78.6973 3.99023 79.2715 4.45117C79.2441 4.55273 79.2148 4.65039 79.1836 4.74414C79.0938 5.00195 79.0273 5.1875 78.9844 5.30078L78.8496 5.64648C78.8418 5.67773 78.8359 5.69336 78.832 5.69336C78.8242 5.69336 78.793 5.65234 78.7383 5.57031C78.4922 5.28516 78.1094 5.09766 77.5898 5.00781C77.4297 4.97656 77.2656 4.96094 77.0977 4.96094C76.3867 4.96094 76.0312 5.17578 76.0312 5.60547C76.0312 5.75391 76.1055 5.86719 76.2539 5.94531C76.5312 6.09375 76.9102 6.20312 77.3906 6.27344C77.875 6.34375 78.2422 6.43945 78.4922 6.56055C78.7422 6.67773 78.9434 6.82031 79.0957 6.98828C79.377 7.29297 79.5176 7.69727 79.5176 8.20117C79.5176 8.75195 79.2969 9.19922 78.8555 9.54297C78.3945 9.90625 77.752 10.0879 76.9277 10.0879Z" fill="#00171F"/>
</svg>
