<svg width="3487" height="3487" viewBox="0 0 3487 3487" fill="none" xmlns="http://www.w3.org/2000/svg">
<path d="M3420.66 1588.14L1899.03 66.1294C1856.91 24.044 1799.8 0.403809 1740.26 0.403809C1680.71 0.403809 1623.61 24.044 1581.48 66.1294L1265.1 382.282L1665.99 783.172C1876.55 712.051 2075.9 913.663 2003.61 1123.06L2390.03 1509.47C2656.38 1417.65 2866.09 1750.69 2666.03 1950.59C2459.91 2156.72 2119.71 1928.26 2230.28 1660.04L1869.62 1299.85V2247.99C2066.49 2345.57 2042.83 2573.64 1940.28 2675.96C1890.17 2726.04 1822.23 2754.17 1751.39 2754.17C1680.54 2754.17 1612.6 2726.04 1562.5 2675.96C1425.78 2539.01 1476.36 2310.94 1650.03 2240.21V1283.12C1488.18 1216.9 1458.62 1043.92 1504.99 932.961L1109.78 537.284L66.1616 1581.06C24.0571 1623.17 0.403809 1680.29 0.403809 1739.84C0.403809 1799.39 24.0571 1856.5 66.1616 1898.61L1588.25 3420.63C1630.36 3462.71 1687.46 3486.34 1746.99 3486.34C1806.52 3486.34 1863.62 3462.71 1905.73 3420.63L3420.66 1905.69C3462.76 1863.58 3486.42 1806.47 3486.42 1746.92C3486.42 1687.37 3462.76 1630.25 3420.66 1588.14V1588.14Z" fill="#ffffff"/>
</svg>
