<svg width="896" height="872" viewBox="0 0 896 872" fill="none" xmlns="http://www.w3.org/2000/svg">
<path d="M447.6 0.300819C200.3 0.200819 0 200.401 0 447.501C0 642.901 125.3 809.001 299.8 870.001C323.3 875.901 319.7 859.201 319.7 847.801V770.301C184 786.201 178.5 696.401 169.4 681.401C151 650.001 107.5 642.001 120.5 627.001C151.4 611.101 182.9 631.001 219.4 684.901C245.8 724.001 297.3 717.401 323.4 710.901C329.1 687.401 341.3 666.401 358.1 650.101C217.5 624.901 158.9 539.101 158.9 437.101C158.9 387.601 175.2 342.101 207.2 305.401C186.8 244.901 209.1 193.101 212.1 185.401C270.2 180.201 330.6 227.001 335.3 230.701C368.3 221.801 406 217.101 448.2 217.101C490.6 217.101 528.4 222.001 561.7 231.001C573 222.401 629 182.201 683 187.101C685.9 194.801 707.7 245.401 688.5 305.101C720.9 341.901 737.4 387.801 737.4 437.401C737.4 539.601 678.4 625.501 537.4 650.301C549.477 662.178 559.066 676.342 565.608 691.966C572.15 707.591 575.512 724.362 575.5 741.301V853.801C576.3 862.801 575.5 871.701 590.5 871.701C767.6 812.001 895.1 644.701 895.1 447.601C895.1 200.401 694.7 0.300819 447.6 0.300819V0.300819Z" fill="black"/>
</svg>
