<svg width="3721" height="3721" viewBox="0 0 3721 3721" fill="none" xmlns="http://www.w3.org/2000/svg">
<path d="M3321.78 0.6875H399.219C179.196 0.6875 0.6875 179.196 0.6875 399.219V3321.78C0.6875 3541.8 179.196 3720.31 399.219 3720.31H3321.78C3541.8 3720.31 3720.31 3541.8 3720.31 3321.78V399.219C3720.31 179.196 3541.8 0.6875 3321.78 0.6875ZM2024.89 2901.66C2024.89 3263.66 1812.34 3428.89 1502.65 3428.89C1222.85 3428.89 1060.95 3284.42 977.919 3109.23L1262.7 2937.36C1317.5 3034.51 1367.32 3116.7 1487.71 3116.7C1602.29 3116.7 1675.35 3071.87 1675.35 2896.68V1708.56H2024.89V2901.66V2901.66ZM2851.85 3428.89C2527.21 3428.89 2317.15 3274.46 2215.03 3071.87L2499.81 2907.47C2574.54 3029.53 2672.51 3120.02 2844.37 3120.02C2988.84 3120.02 3081.83 3047.79 3081.83 2947.33C3081.83 2827.77 2987.18 2785.42 2826.94 2714.85L2739.76 2677.49C2487.36 2570.38 2320.47 2435.05 2320.47 2150.27C2320.47 1887.9 2520.57 1688.63 2831.92 1688.63C3054.43 1688.63 3213.85 1765.85 3328.42 1968.44L3056.09 2142.79C2996.31 2035.69 2931.55 1993.34 2831.09 1993.34C2728.97 1993.34 2664.2 2058.11 2664.2 2142.79C2664.2 2247.41 2728.97 2289.75 2879.25 2355.34L2966.42 2392.71C3263.66 2519.74 3430.55 2650.09 3430.55 2942.35C3430.55 3256.19 3183.13 3428.89 2851.85 3428.89V3428.89Z" fill="#ffffff"/>
</svg>
