<svg width="3590" height="3590" viewBox="0 0 3590 3590" fill="none" xmlns="http://www.w3.org/2000/svg">
<path d="M1793.21 0C802.365 0 0 804.16 0 1795C0 2785.84 802.365 3590 1793.21 3590C2785.84 3590 3590 2785.84 3590 1795C3590 804.16 2785.84 0 1793.21 0ZM3037.14 1077H2507.62C2451.44 854.682 2368.25 640.078 2259.91 437.98C2587.33 550.706 2863.24 777.545 3037.14 1077ZM1795 366.18C1943.99 581.58 2060.66 820.315 2137.85 1077H1452.16C1529.34 820.315 1646.02 581.58 1795 366.18ZM405.67 2154C376.95 2039.12 359 1918.86 359 1795C359 1671.15 376.95 1550.88 405.67 1436H1012.38C998.02 1554.47 987.25 1672.94 987.25 1795C987.25 1917.06 998.02 2035.53 1012.38 2154H405.67ZM552.86 2513H1082.39C1139.83 2737.38 1222.4 2952.78 1330.1 3152.02C1002.32 3039.91 726.227 2812.91 552.86 2513V2513ZM1082.39 1077H552.86C726.227 777.088 1002.32 550.09 1330.1 437.98C1221.75 640.078 1138.56 854.682 1082.39 1077V1077ZM1795 3223.82C1646.02 3008.42 1529.34 2769.69 1452.16 2513H2137.85C2060.66 2769.69 1943.99 3008.42 1795 3223.82ZM2215.03 2154H1374.97C1358.82 2035.53 1346.25 1917.06 1346.25 1795C1346.25 1672.94 1358.82 1552.68 1374.97 1436H2215.03C2231.19 1552.68 2243.75 1672.94 2243.75 1795C2243.75 1917.06 2231.19 2035.53 2215.03 2154ZM2259.91 3152.02C2367.61 2952.78 2450.18 2737.38 2507.62 2513H3037.14C2863.24 2812.46 2587.33 3039.29 2259.91 3152.02V3152.02ZM2577.62 2154C2591.98 2035.53 2602.75 1917.06 2602.75 1795C2602.75 1672.94 2591.98 1554.47 2577.62 1436H3184.33C3213.05 1550.88 3231 1671.15 3231 1795C3231 1918.86 3213.05 2039.12 3184.33 2154H2577.62Z" fill="#ffffff"/>
</svg>
