<svg width="805" height="805" viewBox="0 0 805 805" fill="none" xmlns="http://www.w3.org/2000/svg">
<path fill-rule="evenodd" clip-rule="evenodd" d="M0.541026 67.7047C0.541026 49.8918 7.61717 32.8085 20.2128 20.2129C32.8084 7.61725 49.8917 0.541105 67.7046 0.541105H737.221C746.049 0.526688 754.792 2.25355 762.952 5.62283C771.111 8.99211 778.525 13.9376 784.771 20.1763C791.016 26.4149 795.97 33.8241 799.348 41.9797C802.726 50.1353 804.463 58.8771 804.458 67.7047V737.221C804.467 746.05 802.736 754.795 799.363 762.954C795.989 771.114 791.04 778.528 784.799 784.773C778.557 791.018 771.146 795.971 762.988 799.349C754.83 802.727 746.087 804.463 737.258 804.458H67.7046C58.8815 804.458 50.1448 802.719 41.9938 799.342C33.8427 795.964 26.4371 791.014 20.1999 784.773C13.9627 778.533 9.0162 771.124 5.64306 762.971C2.26992 754.818 0.536225 746.081 0.541026 737.258V67.7047ZM318.746 307.053H427.603V361.719C443.316 330.293 483.512 302.01 543.916 302.01C659.716 302.01 687.159 364.606 687.159 479.456V692.202H569.97V505.62C569.97 440.21 554.257 403.303 514.353 403.303C458.993 403.303 435.972 443.097 435.972 505.62V692.202H318.746V307.053ZM117.767 687.196H234.992V302.01H117.767V687.159V687.196ZM251.765 176.38C251.986 186.417 250.2 196.397 246.512 205.734C242.823 215.071 237.307 223.578 230.287 230.755C223.267 237.931 214.883 243.634 205.629 247.526C196.376 251.419 186.437 253.425 176.398 253.425C166.358 253.425 156.42 251.419 147.166 247.526C137.912 243.634 129.529 237.931 122.509 230.755C115.488 223.578 109.972 215.071 106.284 205.734C102.596 196.397 100.81 186.417 101.031 176.38C101.464 156.678 109.595 137.93 123.682 124.15C137.769 110.37 156.692 102.654 176.398 102.654C196.104 102.654 215.027 110.37 229.113 124.15C243.2 137.93 251.331 156.678 251.765 176.38V176.38Z" fill="black"/>
</svg>
