<svg width="1040" height="1029" viewBox="0 0 1040 1029" fill="none" xmlns="http://www.w3.org/2000/svg">
<path d="M519.999 899C465.267 852.314 414.534 801.132 368.333 745.99C298.999 663.18 216.666 539.853 216.666 422.333C216.636 362.315 234.411 303.636 267.743 253.724C301.074 203.812 348.463 164.91 403.912 141.94C459.362 118.971 520.378 112.967 579.241 124.689C638.104 136.411 692.166 165.331 734.586 207.79C762.829 235.907 785.215 269.346 800.448 306.173C815.681 342.999 823.46 382.481 823.333 422.333C823.333 539.853 740.999 663.18 671.666 745.99C625.464 801.132 574.732 852.313 519.999 899ZM519.999 292.333C485.521 292.333 452.455 306.029 428.075 330.409C403.696 354.789 389.999 387.855 389.999 422.333C389.999 456.811 403.696 489.877 428.075 514.257C452.455 538.637 485.521 552.333 519.999 552.333C554.478 552.333 587.544 538.637 611.923 514.257C636.303 489.877 649.999 456.811 649.999 422.333C649.999 387.855 636.303 354.789 611.923 330.409C587.544 306.029 554.478 292.333 519.999 292.333Z" fill="black"/>
</svg>
