<?xml version="1.0" standalone="no"?>
<!DOCTYPE svg PUBLIC "-//W3C//DTD SVG 20010904//EN"
 "http://www.w3.org/TR/2001/REC-SVG-20010904/DTD/svg10.dtd">
<svg version="1.0" xmlns="http://www.w3.org/2000/svg"
 width="599.000000pt" height="417.000000pt" viewBox="0 0 599.000000 417.000000"
 preserveAspectRatio="xMidYMid meet">

<g transform="translate(0.000000,417.000000) scale(0.100000,-0.100000)"
fill="#f7f7f7" stroke="none">
<path d="M755 2601 c-49 -22 -91 -69 -106 -119 -6 -23 -9 -100 -7 -198 3 -156
4 -162 31 -202 75 -114 242 -115 322 -3 l30 43 3 172 3 172 -43 11 c-51 14
-85 46 -103 100 -12 34 -17 38 -52 41 -21 1 -56 -6 -78 -17z m105 -156 c0 -47
-19 -72 -38 -53 -7 7 -12 30 -12 53 0 23 5 46 12 53 19 19 38 -6 38 -53z m58
-132 c-42 -2 -114 -2 -160 0 -46 1 -11 3 77 3 88 0 125 -2 83 -3z"/>
<path d="M2623 2578 l-22 -32 31 -23 c18 -13 35 -23 38 -23 3 0 14 14 24 32
l19 31 -27 24 c-15 13 -30 23 -34 23 -4 0 -17 -15 -29 -32z"/>
<path d="M2010 2398 c0 -208 4 -225 53 -262 40 -29 134 -29 174 0 52 38 73 81
73 146 0 65 -14 100 -55 138 -23 22 -36 25 -101 25 l-74 0 0 73 0 72 -35 0
-35 0 0 -192z m208 -44 c59 -67 -3 -188 -87 -169 -41 9 -51 30 -51 110 0 65 1
66 33 80 40 18 76 11 105 -21z"/>
<path d="M3160 2355 l0 -235 35 0 35 0 0 235 0 235 -35 0 -35 0 0 -235z"/>
<path d="M1309 2536 c-59 -21 -96 -53 -123 -108 -59 -117 -15 -258 93 -304 43
-18 132 -18 174 0 62 26 75 51 79 154 l3 92 -77 0 c-42 0 -79 -4 -82 -9 -3 -5
-3 -23 0 -40 6 -27 10 -31 41 -31 34 0 34 0 31 -42 -3 -41 -5 -44 -45 -56 -38
-12 -47 -12 -80 5 -53 26 -77 63 -77 120 1 120 105 186 218 139 l34 -14 7 34
c8 43 3 51 -43 64 -49 13 -109 12 -153 -4z"/>
<path d="M3687 2543 l-27 -4 2 -212 3 -212 90 -3 c154 -5 215 34 215 135 0 49
-4 59 -34 89 l-34 34 15 39 c13 33 13 43 2 66 -24 49 -60 67 -136 70 -37 2
-80 1 -96 -2z m153 -82 c24 -47 -1 -81 -61 -81 l-39 0 0 50 0 50 45 0 c34 0
47 -5 55 -19z m25 -163 c30 -14 41 -48 25 -78 -16 -30 -75 -53 -117 -45 l-33
6 0 64 0 65 50 0 c27 0 61 -5 75 -12z"/>
<path d="M1668 2438 c-23 -8 -28 -16 -28 -43 l0 -34 35 15 c72 30 145 11 145
-37 0 -16 -7 -19 -48 -19 -63 0 -132 -35 -148 -75 -35 -90 73 -163 185 -124
24 9 35 8 47 -2 13 -10 20 -8 42 14 21 21 24 29 14 39 -8 8 -12 44 -12 100 0
101 -14 139 -60 163 -33 17 -130 19 -172 3z m160 -210 c3 -35 1 -37 -35 -48
-51 -16 -93 0 -93 34 0 35 36 57 85 54 38 -3 40 -5 43 -40z"/>
<path d="M2390 2285 l0 -165 35 0 35 0 0 120 c0 111 1 120 21 131 12 6 34 9
50 7 28 -4 29 -3 29 34 0 36 -1 38 -33 38 -18 0 -39 -6 -46 -12 -11 -10 -14
-10 -18 0 -3 6 -20 12 -39 12 l-34 0 0 -165z"/>
<path d="M2607 2443 c-4 -3 -7 -78 -7 -165 l0 -158 40 0 40 0 0 165 0 165 -33
0 c-19 0 -37 -3 -40 -7z"/>
<path d="M2854 2436 c-113 -49 -123 -231 -18 -297 32 -20 52 -24 115 -24 86 0
109 12 109 56 0 33 -1 33 -53 18 -22 -6 -57 -7 -80 -4 -38 7 -87 43 -87 65 0
6 41 10 114 10 129 0 143 7 131 62 -19 86 -68 128 -150 128 -27 -1 -64 -7 -81
-14z m126 -66 c40 -40 13 -60 -79 -60 -58 0 -67 12 -36 48 32 39 83 44 115 12z"/>
<path d="M4088 2438 c-27 -9 -35 -29 -22 -61 5 -13 9 -13 32 -1 34 17 103 18
124 2 9 -7 18 -22 20 -33 3 -18 -4 -21 -57 -26 -67 -6 -119 -29 -135 -58 -19
-37 -12 -90 16 -116 33 -30 102 -42 156 -26 31 10 43 10 54 0 12 -10 20 -8 41
13 21 21 23 29 14 46 -6 11 -11 57 -11 102 0 93 -15 132 -60 155 -33 17 -130
19 -172 3z m157 -212 c0 -35 -3 -40 -29 -47 -39 -11 -85 0 -97 22 -8 15 -4 24
16 45 20 20 33 25 68 22 42 -3 42 -3 42 -42z"/>
<path d="M4427 2443 c-4 -3 -7 -78 -7 -165 l0 -158 40 0 40 0 0 119 c0 134 6
146 65 139 35 -4 35 -4 35 34 0 36 -2 38 -31 38 -17 0 -39 -5 -50 -10 -13 -7
-19 -7 -19 0 0 11 -63 14 -73 3z"/>
<path d="M4647 2443 c-4 -3 -7 -78 -7 -165 l0 -158 40 0 40 0 0 119 c0 134 6
146 65 139 35 -4 35 -4 35 34 0 36 -1 38 -33 38 -18 0 -39 -6 -46 -12 -11 -10
-14 -10 -18 0 -5 12 -65 17 -76 5z"/>
<path d="M4931 2433 c-52 -26 -86 -85 -86 -152 0 -73 26 -119 85 -148 80 -41
166 -23 217 44 25 32 28 45 28 107 0 59 -4 77 -24 105 -13 18 -39 40 -57 47
-45 19 -121 17 -163 -3z m147 -79 c32 -37 31 -116 -3 -149 -58 -59 -155 -10
-155 77 0 71 42 113 105 103 17 -3 40 -16 53 -31z"/>
<path d="M5288 2434 c-34 -18 -48 -43 -48 -87 0 -50 36 -82 109 -96 61 -12 87
-30 78 -55 -10 -25 -68 -29 -130 -8 l-56 19 -7 -30 c-5 -23 -2 -34 11 -43 42
-31 172 -30 220 2 33 22 48 71 34 112 -13 37 -47 58 -109 68 -22 4 -51 15 -63
24 -18 15 -19 20 -8 34 18 21 99 21 129 0 21 -14 23 -14 32 11 13 35 14 32
-20 50 -37 19 -136 19 -172 -1z"/>
<path d="M3332 2353 c-22 -9 -34 -41 -22 -63 10 -18 21 -20 133 -20 126 0 147
6 147 41 0 40 -26 49 -138 48 -59 0 -113 -3 -120 -6z"/>
</g>
</svg>
